<svg xmlns="http://www.w3.org/2000/svg" viewBox="0 0 1200 280" fill="none" aria-hidden="true">
  <!-- Simplified Toronto-inspired skyline line art  replace this file anytime -->
  <path
    stroke="currentColor"
    stroke-width="1.75"
    stroke-linejoin="round"
    stroke-linecap="round"
    d="M0 250
       H40 V210 H70 V250
       H95 V180 H130 V250
       H155 V200 H185 V165 H210 V200 H240 V250
       H265 V175 H300 V140 H315 V100 H325 V140 H340 V175 H375 V250
       H400 V190 H430 V160 H460 V190 H490 V250
       H520 V120
       L535 40 L542 20 L549 40
       L564 120
       V250
       H595 V170 H630 V145 H665 V170 H700 V250
       H730 V185 H760 V155 H800 V185 H830 V250
       H860 V195 H890 V160 H920 V195 H950 V250
       H975 V205 H1005 V175 H1035 V205 H1065 V250
       H1090 V215 H1125 V250
       H1200"
  />
  <path
    stroke="currentColor"
    stroke-width="1.25"
    stroke-linecap="round"
    d="M542 20 V8"
  />
</svg>
